<?xml version="1.0" encoding="utf-8"?>
<!-- Generator: Adobe Illustrator 25.0.0, SVG Export Plug-In . SVG Version: 6.00 Build 0)  -->
<svg version="1.1" id="Warstwa_1" xmlns="http://www.w3.org/2000/svg" xmlns:xlink="http://www.w3.org/1999/xlink" x="0px" y="0px"
	 viewBox="0 0 674.8 590.6" style="enable-background:new 0 0 674.8 590.6;" xml:space="preserve">
<style type="text/css">
	.st0{fill:#3F3D56;}
	.st1{fill:#4B4B4B;}
	.st2{fill:#E6E6E6;}
	.st3{fill:#F2F2F2;}
	.st4{fill:#FEB8B8;}
	.st5{fill:#2F2E41;}
	.st6{fill:#E4E4E4;}
</style>
<path id="a7e0d23c-0c47-41f1-93b9-87dfccd4c0f5-419" class="st0" d="M464,140h-3.2V51.3c0-28.3-23-51.3-51.3-51.3H221.6
	c-28.3,0-51.3,23-51.3,51.3v486.4c0,28.3,23,51.3,51.3,51.3h187.9c28.3,0,51.3-23,51.3-51.3V203.1h3.2L464,140z"/>
<path id="a1ad11fc-8226-4675-bbe0-e36020d9de96-420" class="st1" d="M450.3,47.9v493.3c0,21.5-17.4,38.9-38.9,38.9H219.6
	c-21.5,0-38.9-17.4-38.9-38.9V47.9c0-21.5,17.4-38.9,38.9-38.9h23.3c-3.9,9.5,0.7,20.3,10.2,24.1c2.2,0.9,4.6,1.4,6.9,1.4h109.3
	c10.2,0,18.5-8.3,18.5-18.5c0-2.4-0.5-4.7-1.4-6.9h24.9C432.8,9,450.3,26.4,450.3,47.9L450.3,47.9z"/>
<path id="b97f850c-7352-4ff9-8496-0f681ff3b244-430" class="st2" d="M623.5,590.6H51.3c-0.8,0-1.5-0.4-1.5-0.9s0.7-0.9,1.5-0.9
	h572.2c0.8,0,1.5,0.4,1.5,0.9S624.3,590.6,623.5,590.6z"/>
<g id="ac055b4e-9afd-48c4-86db-12c8e2993e8d">
	<path id="b77ebe88-e0c7-4a9a-a2fb-b51dce897c46-431" class="st2" d="M73.9,556.8c5.3,1.9,11.2,0.8,15.6-2.7
		c5.5-4.6,7.2-12.1,8.6-19.1l4.1-20.7l-8.6,5.9c-6.2,4.3-12.5,8.7-16.8,14.9c-4.3,6.2-6.2,14.6-2.7,21.3"/>
	<path id="a8a7bc76-ff28-4167-bc9c-ebff63445848-432" class="st3" d="M75.2,583.3c-1.1-7.9-2.2-15.9-1.4-23.9
		c0.7-7.1,2.8-14,7.3-19.7c2.3-3,5.2-5.6,8.4-7.6c0.8-0.5,1.6,0.8,0.8,1.3c-5.6,3.5-9.9,8.7-12.3,14.9c-2.7,6.8-3.1,14.3-2.7,21.5
		c0.3,4.4,0.9,8.7,1.5,13.1c0.1,0.4-0.1,0.8-0.5,0.9C75.8,583.9,75.4,583.7,75.2,583.3L75.2,583.3z"/>
	<path id="abfc2b94-a38f-4778-bd11-bd0282c86570-433" class="st2" d="M83.1,570.6c2.3,3.5,6.2,5.5,10.4,5.3
		c5.2-0.2,9.6-3.9,13.5-7.4l11.6-10.3l-7.7-0.4c-5.5-0.3-11.2-0.5-16.5,1.2s-10.1,5.8-11.1,11.3"/>
	<path id="ba99c695-899d-4604-b38e-601ed41861fa-434" class="st3" d="M72.2,587.8c5.2-9.2,11.3-19.5,22.1-22.8c3-0.9,6.2-1.2,9.3-1
		c1,0.1,0.7,1.6-0.2,1.5c-5.3-0.4-10.5,1-14.8,3.9c-4.2,2.8-7.4,6.8-10.2,11c-1.7,2.6-3.2,5.3-4.7,7.9
		C73.1,589.3,71.7,588.7,72.2,587.8z"/>
</g>
<path id="e0f3bbc9-2b9f-408e-80ac-e1d5d48fdbc4-438" class="st4" d="M507,377.9c1-4.1,5.1-6.7,9.2-5.7c0.4,0.1,0.9,0.2,1.3,0.4
	l18.5-20.1l3.5,13.8l-18.1,17c-1.9,3.8-6.6,5.3-10.4,3.3C507.8,385,506.2,381.4,507,377.9L507,377.9z"/>
<path id="b7278a0b-1b02-42c5-a26a-5568eba21726-439" class="st4" d="M546.7,578.8h-11.3l-5.4-43.5h16.7L546.7,578.8z"/>
<path id="ae5e3f59-c07c-4936-a848-b4ed4a22f493-440" class="st5" d="M549.6,575.1h-22.2c-7.8,0-14.2,6.3-14.2,14.2v0.5h36.4
	L549.6,575.1z"/>
<path id="e2dcac65-80ca-45a3-9c58-68329f82aa19-441" class="st4" d="M611.5,567.6l-10.6,4l-20.5-38.8l15.6-5.9L611.5,567.6z"/>
<path id="e33efd2e-5dad-4e18-8ce5-ea4b13e613d2-442" class="st5" d="M612.9,563.1l-20.8,7.9l0,0c-7.3,2.8-11,11-8.2,18.3l0.2,0.4
	l34-12.9L612.9,563.1z"/>
<path id="aea1be6b-88fd-4404-a4b2-fdb70dea932e-443" class="st5" d="M574.3,434l9.4,50.3c0,0,25.4,70.8,23.6,72.6
	c-1.8,1.8-26.3,8-24.9,4S553,496.8,553,496.8L574.3,434z"/>
<path id="a45d4c0e-5c31-49a4-b00c-14ea50dd8cbe-444" class="st6" d="M536.4,342.6c0,0-18.9,24.7-16.4,26c2.5,1.3,12.1,8.5,12.1,8.5
	l9.8-26.8L536.4,342.6z"/>
<path id="ababf4ae-7dbc-4717-bb50-ecd0b5fac405-445" class="st5" d="M531.1,367.5c0,0-3.1,23.2-1.8,28.1s0.4,143.8-0.4,146.1
	s-3.6,9.8-2.2,13.4c1.3,3.6,19.6,12.5,22.3,9.4c2.7-3.1,22.3-116.7,22.3-116.7s27.6-68.6,21.4-75.3
	C586.4,365.7,531.1,367.5,531.1,367.5z"/>
<circle id="a4a0a325-f198-46ef-8204-e1264a7da486" class="st4" cx="571.2" cy="196.8" r="21.8"/>
<path id="f1bcc5ff-8c37-42ba-ac71-fb7b653723a6-446" class="st6" d="M548.4,246.1c0.6-3.5,2.3-6.8,5-9.2l4-12.2h23.4l6.5,10.2
	c7,3,12.3,7.8,12.5,13.5c1.1,3.8-3.6,123.4-4.9,127.8c-0.4,1.3-5.7,2-13.2,2.3c-6.9,0.3-15.5,0.2-23.9,0
	c-13.8-0.3-26.7-1.1-28.8-1.5C524,376.4,547.9,249,548.4,246.1z"/>
<path id="f2ae932d-f3ee-421e-b804-f39bdd3d1485-447" class="st4" d="M569.1,404.7c3.6-2.3,4.6-7,2.3-10.6c-0.2-0.4-0.5-0.7-0.8-1.1
	l12.9-24.1l-14.1,1.3l-10.1,22.7c-2.9,3.1-2.8,8,0.3,10.9C562.1,406.3,566.1,406.7,569.1,404.7L569.1,404.7z"/>
<path id="a13bc27c-3d22-450d-9b6a-4857ac9e22b6-448" class="st6" d="M571.2,233c0,0-20.5,8.5-12.9,29.8c7.6,21.4,16,46.8,16,46.8
	s-10.7,57.4-10.7,59.7c0,2.2-6.7,14.2-4,16.5c2.7,2.2,20.5,6.7,20.9,4.5c1.4-5.1,3-10.2,4.9-15.1c0.9-1.8,21.8-57.4,19.1-62.3
	c-2-3.6-3.7-36.6-4.5-53.8c-0.4-10-6-19-14.7-23.8C581.3,232.9,576.4,231.7,571.2,233z"/>
<path id="a3aad1c3-1778-4515-92de-8de9e018032c-449" class="st5" d="M579.6,206.6c-1.7-0.8-3.6-0.9-5.4-1.4
	c-6.4-1.7-10.7-8-9.3-13.8c0.3-0.7,0.4-1.5,0.3-2.3c-0.2-1.7-2.2-2.8-4.1-3.2c-1.9-0.4-3.9-0.3-5.8-1c-2.7-1-4.6-3.3-5.1-6.1
	c-0.3-2.7,0.4-5.4,1.9-7.6l0.7,1.7c1-0.7,1.8-1.8,2.2-2.9c1.5,0.2,2.8,1.1,3.5,2.5c1.1,0.6,1.3-1.8,2.5-2.1c0.5-0.1,1.1,0.1,1.5,0.3
	c2.5,1,5.3,0.1,8-0.4c4.6-1,9.3-1,13.9,0c3,0.6,6,1.7,8.2,3.7c1.7,1.6,3,3.6,3.8,5.8c2.3,5.1,3.9,10.7,3.1,16.1
	c-0.7,4.6-2.9,8.8-6.2,12.1c-1.8,1.8-7.5,7.9-10.6,6.9C578.9,213.7,584.3,208.7,579.6,206.6z"/>
<image style="overflow:visible;" width="1080" height="1846" xlink:href="D942B797.jpg"  transform="matrix(0.2493 0 0 0.2665 180.7135 44)">
</image>
</svg>
